PathFileType	4	(X/Y/Z)	C:\Users\Basilio\Documents\Thesis Gigler\squatting_fais\c3dfiles\076\SLS_front_pre5\markers_experimental.trc
DataRate	CameraRate	NumFrames	NumMarkers	Units	OrigDataRate	OrigDataStartFrame	OrigNumFrames
200.000000	200.000000	4	61	mm	200.000000	222	1782
Frame#	Time	FHD			LBHD			RBHD			C7			T10			CLAV			LSHO			LUUPA			LMUPA			LDUPA			LLEP			LMEP			LRAD			LUL			LRFIN			RSHO			RUPA1			RMUPA			RDUPA			RLEP			RMEP			RRAD			RUL			RUFIN			LASI			RASI			USACR			LSACR			RSACR			LTHI1			LTHI2			LTHI3			LTHI4			LLFC			LMFC			LTIB1			LTIB2			LTIB3			LTIB4			LLMAL			LMMAL			LHEE			LMT1			LMT2			LMT5			RTHI			RTHI2			RTHI3			RTHI4			RLFC			RMFC			RTIB1			RTIB2			RTIB3			RTIB4			RLMAL			RMMAL			RHEE			RMT1			RMT2			RMT5			
		X1	Y1	Z1	X2	Y2	Z2	X3	Y3	Z3	X4	Y4	Z4	X5	Y5	Z5	X6	Y6	Z6	X7	Y7	Z7	X8	Y8	Z8	X9	Y9	Z9	X10	Y10	Z10	X11	Y11	Z11	X12	Y12	Z12	X13	Y13	Z13	X14	Y14	Z14	X15	Y15	Z15	X16	Y16	Z16	X17	Y17	Z17	X18	Y18	Z18	X19	Y19	Z19	X20	Y20	Z20	X21	Y21	Z21	X22	Y22	Z22	X23	Y23	Z23	X24	Y24	Z24	X25	Y25	Z25	X26	Y26	Z26	X27	Y27	Z27	X28	Y28	Z28	X29	Y29	Z29	X30	Y30	Z30	X31	Y31	Z31	X32	Y32	Z32	X33	Y33	Z33	X34	Y34	Z34	X35	Y35	Z35	X36	Y36	Z36	X37	Y37	Z37	X38	Y38	Z38	X39	Y39	Z39	X40	Y40	Z40	X41	Y41	Z41	X42	Y42	Z42	X43	Y43	Z43	X44	Y44	Z44	X45	Y45	Z45	X46	Y46	Z46	X47	Y47	Z47	X48	Y48	Z48	X49	Y49	Z49	X50	Y50	Z50	X51	Y51	Z51	X52	Y52	Z52	X53	Y53	Z53	X54	Y54	Z54	X55	Y55	Z55	X56	Y56	Z56	X57	Y57	Z57	X58	Y58	Z58	X59	Y59	Z59	X60	Y60	Z60	X61	Y61	Z61	

223	1.11	-187.7423248291016	1619.08837890625	-944.025817871094	-339.6011352539063	1579.49755859375	-1039.764404296875	-322.8754577636719	1578.427368164063	-888.0625610351565	-403.7820129394532	1454.457641601563	-963.5170898437502	-437.4387817382814	1134.40673828125	-974.2812500000002	-275.2504272460938	1371.027709960938	-968.8702392578127	-344.3612060546876	1396.64013671875	-1138.847045898438	-302.1965332031251	1224.419921875	-1236.23974609375	-258.9578247070313	1208.000122070313	-1216.988037109375	-275.1977844238282	1166.413330078125	-1261.01708984375	-261.0443420410157	1112.500244140625	-1277.148681640625	-290.0427551269532	1068.667846679688	-1211.674194335938	-69.63663482666017	972.8911132812502	-1200.103515625	-60.0167808532715	966.5797119140627	-1264.05224609375	4.478243350982667	942.0560302734377	-1185.442138671875	-333.2854614257813	1381.1298828125	-800.9842529296877	-317.7847900390626	1201.224975585938	-701.1705932617189	-268.3931884765626	1193.933227539063	-700.0307617187501	-289.3058166503907	1140.087646484375	-680.2294311523439	-251.2745513916016	1085.864013671875	-665.1100463867189	-273.8170471191407	1050.248657226563	-735.7681884765626	-74.05061340332033	926.0205688476565	-732.3682861328126	-78.4011688232422	919.2725830078127	-665.4075927734376	-7.278482913970949	887.9681396484377	-725.6142578125001	-269.8497924804688	954.4498291015627	-1080.3359375	-266.3045043945313	957.6019287109377	-861.5833129882815	-435.8449707031251	1023.57861328125	-969.6898193359377	-444.0498046875001	994.5835571289065	-996.5732421875002	-441.9746704101564	994.216003417969	-940.4199829101565	-354.3836975097657	796.5471801757815	-1137.152587890625	-330.0621337890626	715.2586059570314	-1133.515747070313	-280.6874389648438	715.4975585937501	-1123.086791992188	-362.3059997558594	665.5933227539064	-1117.881469726563	-368.9976806640626	505.2307128906251	-1089.386596679688	-332.6137390136719	500.6569824218751	-975.0777587890627	-330.6300354003907	362.9215393066407	-1020.099060058594	-352.5190124511719	308.5694274902344	-1086.53955078125	-323.4378662109376	313.1581115722657	-1050.81494140625	-333.0360107421876	235.9145050048829	-1017.853088378906	-384.2749328613282	108.1158828735352	-1068.78955078125	-357.7296447753907	120.3695144653321	-989.4066162109377	-441.9087524414064	95.86763763427736	-1023.69970703125	-238.6776275634766	54.32898330688478	-1005.00537109375	-233.7705078125001	50.42601776123048	-1044.055053710938	-257.5208740234376	43.80351257324219	-1094.591186523438	-365.1717224121094	713.3551635742189	-786.1983032226565	-328.5037841796876	657.6179809570314	-775.6370239257815	-294.0589294433594	659.6951293945314	-780.1365966796877	-354.4201354980469	579.4114990234376	-788.4914550781252	-357.6337890625001	519.4445190429689	-789.7230224609377	-313.3840942382813	504.0418090820314	-899.4766845703127	-316.8745422363282	385.9571838378907	-793.2849731445315	-389.0155334472657	308.1251220703126	-770.7425537109377	-342.1242675781251	304.6593627929688	-773.7657470703127	-324.8261413574219	255.8954010009766	-801.2847900390627	-383.9422912597657	118.9151382446289	-763.9686889648439	-360.7812805175782	126.6439285278321	-846.2645263671877	-442.118133544922	104.2607421875	-803.0911254882815	-248.1163330078126	51.55900192260744	-831.414245605469	-238.4214782714844	52.82834243774415	-786.1666259765627	-266.3507080078126	37.45980072021485	-731.2205810546876	
224	1.115	-189.3021545410157	1619.73486328125	-944.1370239257815	-340.6463012695313	1579.4404296875	-1039.769409179688	-324.1660766601563	1578.498413085938	-888.1505126953127	-404.4652099609376	1454.26953125	-963.4290161132815	-437.5076293945314	1134.326049804688	-974.2691650390627	-275.8840942382813	1371.282348632813	-968.9488525390627	-344.6901855468751	1396.684326171875	-1138.731811523438	-300.2973022460938	1224.998779296875	-1235.948974609375	-257.1173706054688	1209.353759765625	-1216.254150390625	-272.2039184570313	1167.278686523438	-1259.870971679688	-257.1992187500001	1113.466918945313	-1275.988647460938	-287.4895324707032	1068.696044921875	-1211.367553710938	-64.23328399658205	975.3892211914065	-1199.291259765625	-55.08045196533205	968.9238891601565	-1263.6953125	10.33806991577149	944.049743652344	-1185.531494140625	-333.3273315429688	1380.98828125	-801.0921630859377	-315.2628173828126	1201.003173828125	-702.2557983398439	-265.5087890625001	1194.4130859375	-701.4494018554689	-285.7858276367188	1140.08349609375	-681.8259277343751	-247.1203765869141	1086.440673828125	-667.1913452148439	-269.2785644531251	1050.651245117188	-737.8920288085939	-68.55277252197267	927.496032714844	-733.4386596679689	-73.58978271484376	920.7011718750002	-666.5275878906251	-1.954890847206116	888.7441406250002	-726.0714111328126	-269.9875183105469	954.477233886719	-1080.435302734375	-266.0805358886719	957.9252929687502	-861.8270263671877	-436.0592651367189	1023.576049804688	-969.7639770507815	-444.2576293945314	994.5069580078127	-996.6160278320315	-442.108856201172	994.197692871094	-940.483337402344	-354.4867858886719	796.5046386718752	-1137.08837890625	-330.1296691894532	715.3056030273439	-1133.572998046875	-281.0186767578126	715.5721435546876	-1123.158569335938	-362.4568176269532	665.5721435546876	-1117.911499023438	-369.1388244628907	505.2544860839845	-1089.411987304688	-332.6888122558594	500.7717285156251	-975.1440429687502	-330.6849670410157	362.9249572753907	-1020.186706542969	-352.5892639160157	308.5926208496094	-1086.5986328125	-323.4930114746094	313.1640625000001	-1050.911865234375	-333.0584411621094	236.0152282714844	-1017.867065429688	-384.1878356933595	108.104736328125	-1068.736694335938	-357.7305297851563	120.3708190917969	-989.4162597656252	-441.9519653320314	95.85606384277345	-1023.744506835938	-238.6735229492188	54.37737274169923	-1005.050659179688	-233.7792968750001	50.44343948364259	-1044.140869140625	-256.8099365234376	43.51899337768555	-1094.34375	-365.2179260253907	713.4098510742189	-786.2500610351565	-328.5566101074219	657.6806030273439	-775.6761474609377	-294.1198425292969	659.7592773437501	-780.187683105469	-354.4400939941407	579.4289550781251	-788.5100097656252	-357.6668701171876	519.4677124023439	-789.7487792968752	-312.9245605468751	503.8500976562501	-899.3399047851565	-316.8880920410157	386.0109863281251	-793.283874511719	-389.0384826660157	308.1712646484376	-770.7913208007815	-342.1414184570313	304.7168579101563	-773.8005981445315	-324.8488159179688	255.9412689208985	-801.2841796875002	-383.9581909179688	118.9450225830078	-763.9738159179689	-360.7260437011719	126.6056900024414	-846.2935791015627	-442.1232910156251	104.2921600341797	-803.1605224609377	-248.1716613769532	51.47002029418947	-831.400817871094	-238.7614135742188	52.53639221191408	-786.1658325195315	-266.3294067382813	37.47667694091798	-731.1893920898439	
225	1.12	-190.8494567871094	1620.377685546875	-944.1638793945315	-341.5803833007813	1579.436157226563	-1039.909545898438	-325.4615173339844	1578.514404296875	-888.122009277344	-405.185028076172	1454.11669921875	-963.338073730469	-437.6168212890626	1134.270629882813	-974.2899169921877	-276.3138427734376	1371.445922851563	-968.8862304687502	-344.8233642578126	1396.7470703125	-1138.605102539063	-297.7698974609376	1225.655639648438	-1235.15771484375	-254.3550872802735	1210.391723632813	-1214.817016601563	-268.7086486816407	1168.216552734375	-1258.755126953125	-254.4836120605469	1114.68798828125	-1274.927368164063	-282.0669250488282	1069.496948242188	-1209.641845703125	-59.15613937377931	977.7446289062502	-1199.098510742188	-50.64455032348634	971.3485107421877	-1263.56298828125	15.29355239868164	946.6168212890627	-1186.14990234375	-333.4021301269532	1380.915893554688	-801.221374511719	-312.5473022460938	1200.841918945313	-703.1397094726564	-262.8784179687501	1194.82470703125	-702.9060058593751	-282.2321166992188	1140.12451171875	-683.3585205078126	-243.0110931396485	1087.021484375	-669.1061401367189	-264.9039916992188	1051.543090820313	-740.0510253906251	-63.47628784179689	928.9952392578127	-734.2796020507814	-68.79729461669923	922.213806152344	-667.6458740234376	3.40586280822754	889.782653808594	-726.5549316406251	-270.6538696289063	954.2756347656252	-1080.391479492188	-266.1519470214844	958.0357666015627	-861.923522949219	-436.200653076172	1023.504516601563	-969.8038330078127	-444.4769287109376	994.4538574218752	-996.6787109375002	-442.3625793457032	994.154968261719	-940.5215454101565	-354.5910644531251	796.5294189453127	-1137.233764648438	-330.2666015625001	715.3325195312501	-1133.614501953125	-281.0372009277344	715.6000976562501	-1123.228393554688	-362.5554199218751	665.6301269531251	-1118.006469726563	-369.2640380859376	505.2551269531251	-1089.463500976563	-332.7251281738282	500.765838623047	-975.1805419921877	-330.8051757812501	363.0109252929688	-1020.275268554688	-352.6150512695313	308.6127319335938	-1086.63916015625	-323.5401306152344	313.1849365234376	-1050.962280273438	-333.0575561523438	235.9674835205079	-1017.961364746094	-384.3295898437501	108.1453857421875	-1068.79150390625	-357.6681823730469	120.3850173950196	-989.4379882812502	-441.8796997070314	95.9391555786133	-1023.727783203125	-238.740707397461	54.25486755371095	-1005.068420410156	-233.7640533447266	50.41017532348634	-1044.132568359375	-257.5213623046876	43.79369354248048	-1094.61865234375	-365.2729187011719	713.4594726562501	-786.3101196289065	-328.6419982910157	657.7154541015626	-775.6691894531252	-294.2233581542969	659.7636108398439	-780.1816406250002	-354.4333496093751	579.4942626953126	-788.5211181640627	-357.6703796386719	519.4986572265626	-789.7668457031252	-313.2602233886719	504.1250000000001	-899.4687500000002	-316.8874206542969	386.0405883789064	-793.2815551757815	-389.016571044922	308.2420349121094	-770.800720214844	-342.1624145507813	304.7611389160157	-773.8345947265627	-324.8401489257813	255.9873504638672	-801.2893676757815	-383.9458007812501	118.9490661621094	-763.9912109375001	-360.7454528808594	126.6600952148438	-846.3193969726565	-442.073944091797	104.3376922607422	-803.1395263671877	-248.1549682617188	51.49355697631837	-831.3929443359377	-238.6725769042969	52.57082748413087	-786.1425781250002	-266.3713073730469	37.47180557250977	-731.2469482421876	
226	1.125	-192.4298706054688	1621.291748046875	-944.2839965820315	-343.0548706054688	1579.066040039063	-1039.842895507813	-326.8253784179688	1578.634521484375	-888.2081298828127	-405.9265441894532	1453.91845703125	-963.266540527344	-438.0513916015626	1134.164428710938	-974.4199829101565	-276.7626953125001	1371.560180664063	-968.8282470703127	-344.6702880859376	1397.046752929688	-1138.650390625	-295.8833312988282	1226.539794921875	-1234.514404296875	-252.1045837402344	1211.699829101563	-1213.822143554688	-265.4892883300782	1169.362426757813	-1257.815551757813	-249.8081817626954	1115.770141601563	-1273.684326171875	-278.8230895996094	1070.530517578125	-1208.964111328125	-54.14082717895509	980.0958251953127	-1199.03369140625	-45.89464950561524	974.1123046875002	-1263.267456054688	20.61314010620118	949.1468505859377	-1186.467407226563	-333.4065246582032	1380.844116210938	-801.354675292969	-309.8651733398438	1200.83935546875	-704.0800781250001	-260.1878356933594	1195.330688476563	-704.2007446289064	-278.8569335937501	1140.333129882813	-684.8748168945314	-238.9294586181641	1087.813842773438	-671.0917968750001	-260.3886413574219	1052.06982421875	-742.3649291992189	-57.89574432373048	930.751892089844	-735.3264160156251	-63.98268508911134	923.882995605469	-668.8131713867189	8.648332595825197	891.0971679687502	-727.1657104492189	-271.1443481445313	954.0849609375002	-1080.33154296875	-266.3056335449219	958.0593872070315	-861.9586181640627	-436.3743591308595	1023.414855957031	-969.8784179687502	-444.6055603027345	994.3399658203127	-996.7338867187502	-442.5078125000001	994.1082153320315	-940.5325927734377	-354.7629394531251	796.5944824218752	-1137.206909179688	-330.3561706542969	715.3513793945314	-1133.622436523438	-281.2745056152344	715.6088867187501	-1123.290893554688	-362.7323303222657	665.6483764648439	-1117.970703125	-369.3257751464844	505.2554016113282	-1089.429443359375	-332.8042297363282	500.7936096191407	-975.2512207031252	-330.7756958007813	362.9869995117188	-1020.29443359375	-352.6962585449219	308.6166381835938	-1086.6845703125	-323.6127014160157	313.1705322265626	-1051.000122070313	-333.1003112792969	235.9855041503907	-1017.989624023438	-384.3829650878907	108.1558914184571	-1068.744506835938	-357.6659851074219	120.4323196411133	-989.466735839844	-441.860076904297	95.9180145263672	-1023.697448730469	-238.7067871093751	54.34639358520509	-1005.097290039063	-233.7568817138672	50.38191604614259	-1044.134033203125	-257.4952392578126	43.81261825561524	-1094.66943359375	-365.3827209472657	713.4820556640626	-786.3726806640627	-328.6691284179688	657.7589111328126	-775.6748046875002	-294.2745971679688	659.8286743164064	-780.2004394531252	-354.4700927734376	579.4902343750001	-788.5664062500002	-357.6472167968751	519.5769042968751	-789.7700805664065	-312.8175659179688	503.9148559570314	-899.3491821289065	-316.8231506347657	386.0648498535157	-793.2498168945315	-389.0458374023439	308.2356872558594	-770.8551025390627	-342.1459350585938	304.8154602050782	-773.8039550781252	-324.8710937500001	256.0550842285157	-801.2846679687502	-383.8991088867188	118.9714889526367	-764.0710449218751	-360.8179016113282	126.7044067382813	-846.396179199219	-442.1234741210939	104.3053283691407	-803.177917480469	-248.2129058837891	51.53038787841798	-831.4393310546877	-238.4364013671876	52.7841033935547	-786.1752929687502	-266.3526306152344	37.48806762695313	-731.2125244140626	
